# xmcd CD database file
#
# Track frame offsets:
#	150
#	20535
#	32372
#	52374
#	64891
#	79281
#	91852
#	109713
#	120654
#	133942
#	147615
#	160371
#
# Disc length: 2304 seconds
#
# Revision: 3
# Processed by: cddbd v1.5.1PL2 Copyright (c) Steve Scherf et al.
# Submitted via: jetAudio 5
#
DISCID=ad08fe0c
DTITLE=Various Artist - Its Only A Paper Moon Jazz
DYEAR=2004
DGENRE=Jazz
TTITLE0=John Coltrane - B.J.
TTITLE1=Miles Davis - Milestones
TTITLE2=Charlie Parker - Ornithology
TTITLE3=Dizzy Gillespie - Dizzy Atmosphere
TTITLE4=Lester Young - It's Only A Paper Moon
TTITLE5=Coleman Hawkins - Somebody Loves Me
TTITLE6=Sonny Stitt - Streamline Stanley
TTITLE7=Bud Powell - Off Minor
TTITLE8=Fletcher Henderson - Henderson Stomp
TTITLE9=Lionel Hampton and His Orchestra - Stompology
TTITLE10=Teddy Wilson - Coquette
TTITLE11=Erroll Garner - Stardust
EXTD=
EXTT0=
EXTT1=
EXTT2=
EXTT3=
EXTT4=
EXTT5=
EXTT6=
EXTT7=
EXTT8=
EXTT9=
EXTT10=
EXTT11=
PLAYORDER=
